# File created by Blade
# Date/Time:  Fri Jan 16 17:45:47 2015
#---------------------------------------------------------
:version 1.10
:name HOM
:units
  mass 1.0
  length 1.000000
  angle deg
:documentation
     Acclaim Skeleton File
:root
   axis xyz
   order TX TY TZ RX RY RZ
   position 0.000000 0.000000 0.000000
   orientation 0 0 0
:bonedata
   begin
      id 1
      name Spine_dum
      direction 0.000000 1.000000 0.000000
      length 7.170412
      axis 0.0 0.0 0.0 xyz
   end
   begin
      id 2
      name LeftUpLeg_dum
      direction 1.000000 0.000000 0.000000
      length 4.318350
      axis 0.0 0.0 0.0 xyz
   end
   begin
      id 3
      name RightUpLeg_dum
      direction -1.000000 0.000000 0.000000
      length 4.318350
      axis 0.0 0.0 0.0 xyz
   end
   begin
      id 4
      name Spine
      direction 0.000000 1.000000 0.000000
      length 0.000000
      axis 0.0 0.0 0.0 xyz
      dof rx ry rz
   end
   begin
      id 5
      name Spine_dum1
      direction 0.000000 1.000000 0.000000
      length 14.276153
      axis 0.0 0.0 0.0 xyz
   end
   begin
      id 6
      name Spine_dum2
      direction 0.000000 1.000000 0.000000
      length 10.718243
      axis 0.0 0.0 0.0 xyz
   end
   begin
      id 7
      name Spine_dum3
      direction 0.000000 1.000000 0.000000
      length 10.718243
      axis 0.0 0.0 0.0 xyz
   end
   begin
      id 8
      name Head
      direction 0.000000 1.000000 0.000000
      length 4.527550
      axis 0.0 0.0 0.0 xyz
      dof rx ry rz
   end
   begin
      id 9
      name LeftShoulder
      direction 1.000000 0.000000 0.000000
      length 7.058872
      axis 0.0 0.0 -90.0 xyz
      dof rx ry rz
   end
   begin
      id 10
      name LeftArm
      direction 1.000000 0.000000 0.000000
      length 10.955525
      axis 0.0 0.0 -90.0 xyz
      dof rx ry rz
   end
   begin
      id 11
      name LeftForeArm
      direction 1.000000 0.000000 0.000000
      length 8.193716
      axis 0.0 0.0 -90.0 xyz
      dof ry rz rx
   end
   begin
      id 12
      name LeftHand
      direction 0.000000 0.000000 0.000000
      length 0.000000
      axis 0.0 0.0 -90.0 xyz
      dof rx ry rz
   end
   begin
      id 13
      name LeftHand_dum1
      direction 0.000000 0.000000 0.000000
      length 0.000000
      axis 0.0 0.0 -90.0 xyz
   end
   begin
      id 14
      name LeftHand_dum2
      direction 1.000000 0.000000 0.000000
      length 3.937000
      axis 0.0 0.0 -90.0 xyz
   end
   begin
      id 15
      name LeftHandThumb1
      direction 0.000000 0.000000 1.000000
      length 3.937000
      axis 0.0 0.0 -90.0 xyz
      dof rx rz ry
   end
   begin
      id 16
      name RightShoulder
      direction -1.000000 0.000000 0.000000
      length 7.058872
      axis 0.0 0.0 90.0 xyz
      dof rx ry rz
   end
   begin
      id 17
      name RightArm
      direction -1.000000 0.000000 0.000000
      length 10.955525
      axis 0.0 0.0 90.0 xyz
      dof rx ry rz
   end
   begin
      id 18
      name RightForeArm
      direction -1.000000 0.000000 0.000000
      length 8.193716
      axis 0.0 0.0 90.0 xyz
      dof ry rz rx
   end
   begin
      id 19
      name RightHand
      direction 0.000000 0.000000 0.000000
      length 0.000000
      axis 0.0 0.0 90.0 xyz
      dof rx ry rz
   end
   begin
      id 20
      name RightHand_dum1
      direction 0.000000 0.000000 0.000000
      length 0.000000
      axis 0.0 0.0 90.0 xyz
   end
   begin
      id 21
      name RightHand_dum2
      direction -1.000000 0.000000 0.000000
      length 3.937000
      axis 0.0 0.0 90.0 xyz
   end
   begin
      id 22
      name RightHandThumb1
      direction 0.000000 0.000000 1.000000
      length 3.937000
      axis 0.0 0.0 90.0 xyz
      dof rx rz ry
   end
   begin
      id 23
      name LeftUpLeg
      direction 0.000000 -1.000000 0.000000
      length 17.323638
      axis 0.0 0.0 0.0 xyz
      dof rx ry rz
   end
   begin
      id 24
      name LeftLeg
      direction 0.000000 -1.000000 0.000000
      length 16.270368
      axis 0.0 0.0 0.0 xyz
      dof rx ry rz
   end
   begin
      id 25
      name LeftFoot
      direction 0.000000 -0.258819 0.965926
      length 4.922846
      axis 15.0 0.0 0.0 xyz
      dof rx ry rz
   end
   begin
      id 26
      name LeftToeBase
      direction 0.000000 0.000000 1.000000
      length 2.952750
      axis 0.0 0.0 0.0 xyz
      dof rx ry rz
   end
   begin
      id 27
      name RightUpLeg
      direction 0.000000 -1.000000 0.000000
      length 17.323638
      axis 0.0 0.0 0.0 xyz
      dof rx ry rz
   end
   begin
      id 28
      name RightLeg
      direction 0.000000 -1.000000 0.000000
      length 16.270368
      axis 0.0 0.0 0.0 xyz
      dof rx ry rz
   end
   begin
      id 29
      name RightFoot
      direction 0.000000 -0.258819 0.965926
      length 4.922846
      axis 15.0 0.0 0.0 xyz
      dof rx ry rz
   end
   begin
      id 30
      name RightToeBase
      direction 0.000000 0.000000 1.000000
      length 2.952750
      axis 0.0 0.0 0.0 xyz
      dof rx ry rz
   end
:hierarchy
   begin
      root Spine_dum LeftUpLeg_dum RightUpLeg_dum
      Spine_dum Spine
      LeftUpLeg_dum LeftUpLeg
      RightUpLeg_dum RightUpLeg
      Spine Spine_dum1 Spine_dum2 Spine_dum3
      Spine_dum1 Head
      Spine_dum2 LeftShoulder
      Spine_dum3 RightShoulder
      LeftShoulder LeftArm
      LeftArm LeftForeArm
      LeftForeArm LeftHand
      LeftHand LeftHand_dum1 LeftHand_dum2
      LeftHand_dum1 LeftHandThumb1
      RightShoulder RightArm
      RightArm RightForeArm
      RightForeArm RightHand
      RightHand RightHand_dum1 RightHand_dum2
      RightHand_dum1 RightHandThumb1
      LeftUpLeg LeftLeg
      LeftLeg LeftFoot
      LeftFoot LeftToeBase
      RightUpLeg RightLeg
      RightLeg RightFoot
      RightFoot RightToeBase
   end

# File created by Blade
# Date/Time:  Fri Jan 16 17:45:28 2015
# Frame Rate: 120.000 fps
#------------------------------------------------------
:FULLY-SPECIFIED
:DEGREES
1112
root -5.344718 35.277240 -10.381522 -3.704451 -3.083717 -5.482706
Spine 1.289156 1.759587 10.429594
Head 4.720867 4.027877 -10.180001
LeftShoulder -19.134537 14.438813 -17.973331
LeftArm 20.108688 1.187644 -73.606578
LeftForeArm 4.277441 -0.000000 11.962185
LeftHand 2.037231 -0.000000 -6.731356
LeftHandThumb1 -26.253704 0.000000 33.147579
RightShoulder 1.986592 0.374940 3.435972
RightArm -8.515695 50.970882 70.783753
RightForeArm 20.814082 -0.000000 87.931621
RightHand 10.940548 -0.000000 -22.423668
RightHandThumb1 -24.326973 -0.000000 -32.862282
LeftUpLeg 11.999298 13.142523 6.983034
LeftLeg -8.241738 -0.000000 0.000000
LeftFoot -14.873333 26.351123 -7.979858
LeftToeBase 22.891929 -0.000000 -0.000000
RightUpLeg 9.732746 -6.757306 3.419127
RightLeg -4.690263 -0.000000 0.000000
RightFoot -3.880153 -27.671253 3.505121
RightToeBase 13.803623 -0.000000 -0.000000
1113
root -5.348485 35.277911 -10.381269 -3.718943 -3.071423 -5.492868
Spine 1.326310 1.712180 10.424576
Head 4.702150 4.102267 -10.153305
LeftShoulder -19.140183 14.416976 -17.943752
LeftArm 20.081015 1.146190 -73.622167
LeftForeArm 4.327835 -0.000000 11.965975
LeftHand 2.067154 -0.000000 -6.696964
LeftHandThumb1 -26.253704 0.000000 33.147579
RightShoulder 1.899928 0.398024 3.479582
RightArm -8.635786 51.686929 70.694019
RightForeArm 21.711281 -0.000000 87.850073
RightHand 11.065586 -0.000000 -23.593105
RightHandThumb1 -24.326973 -0.000000 -32.862282
LeftUpLeg 12.013327 13.150486 7.007383
LeftLeg -8.241819 -0.000000 0.000000
LeftFoot -14.841106 26.323366 -7.947675
LeftToeBase 22.831003 -0.000000 -0.000000
RightUpLeg 9.744516 -6.764006 3.435150
RightLeg -4.681229 -0.000000 0.000000
RightFoot -3.889444 -27.687091 3.534642
RightToeBase 13.783547 -0.000000 -0.000000
1114
root -5.353921 35.277072 -10.370629 -3.816709 -3.179259 -5.560236
Spine 1.473330 1.744418 10.520517
Head 4.669540 4.153515 -10.201413
LeftShoulder -19.153440 14.390623 -17.922180
LeftArm 20.038728 1.097268 -73.675845
LeftForeArm 4.369469 -0.000000 11.983934
LeftHand 2.078663 -0.000000 -6.624591
LeftHandThumb1 -26.253704 0.000000 33.147579
RightShoulder 1.808365 0.397922 3.457159
RightArm -8.659724 52.287958 70.767005
RightForeArm 22.404192 -0.000000 87.799847
RightHand 10.937676 -0.000000 -24.290834
RightHandThumb1 -24.326973 -0.000000 -32.862282
LeftUpLeg 12.211619 13.312500 7.139556
LeftLeg -8.341070 -0.000000 0.000000
LeftFoot -14.830672 26.244284 -7.918566
LeftToeBase 22.885971 -0.000000 -0.000000
RightUpLeg 9.854230 -6.689834 3.502047
RightLeg -4.676524 -0.000000 0.000000
RightFoot -3.878926 -27.680600 3.592453
RightToeBase 13.753801 -0.000000 -0.000000
1115
root -5.355150 35.276630 -10.383757 -3.711929 -3.311895 -5.543533
Spine 1.408684 1.857709 10.495933
Head 4.658781 4.213134 -10.186489
LeftShoulder -19.147101 14.399344 -17.900171
LeftArm 20.019833 1.073052 -73.678108
LeftForeArm 4.348282 0.000000 11.999063
LeftHand 2.090112 -0.000000 -6.608333
LeftHandThumb1 -26.253704 0.000000 33.147579
RightShoulder 1.698758 0.369405 3.494946
RightArm -8.594582 52.794644 70.847803
RightForeArm 23.098208 0.000000 87.762466
RightHand 10.942611 -0.000000 -25.247730
RightHandThumb1 -24.326973 -0.000000 -32.862282
LeftUpLeg 12.109378 13.458254 7.112930
LeftLeg -8.326386 -0.000000 0.000000
LeftFoot -14.830323 26.236396 -7.929867
LeftToeBase 22.924543 -0.000000 -0.000000
RightUpLeg 9.665255 -6.551234 3.515668
RightLeg -4.569207 -0.000000 0.000000
RightFoot -3.914695 -27.691345 3.504721
RightToeBase 13.807687 -0.000000 -0.000000
